<?xml version="1.0" encoding="utf-8"?>
<!-- Generator: Adobe Illustrator 16.0.0, SVG Export Plug-In . SVG Version: 6.00 Build 0)  -->
<!DOCTYPE svg PUBLIC "-//W3C//DTD SVG 1.1//EN" "http://www.w3.org/Graphics/SVG/1.1/DTD/svg11.dtd">
<svg version="1.1" id="Capa_2_copia_2" xmlns="http://www.w3.org/2000/svg" xmlns:xlink="http://www.w3.org/1999/xlink" x="0px"
	 y="0px" width="1009.5px" height="176.8px" viewBox="-413.2 2.8 1009.5 176.8" enable-background="new -413.2 2.8 1009.5 176.8"
	 xml:space="preserve">
<g>
	<path fill="#0093B2" d="M-298.6,3.7c-4.3,0-8,2.4-9.8,6h-2.8c-5.1,0-10,1.6-13.8,4.5c-4.4,3.4-6.8,8.1-6.8,13.3v14.7h9.8V27.5
		c0-4.9,5.7-8.1,10.8-8.1h2.6c1.8,3.8,5.6,6.5,10.1,6.5c6.1,0,11.1-5,11.1-11.1C-287.5,8.6-292.5,3.7-298.6,3.7z M-298.6,18
		c-1.8,0-3.2-1.4-3.2-3.2c0-1.8,1.4-3.2,3.2-3.2c1.8,0,3.2,1.4,3.2,3.2C-295.4,16.6-296.9,18-298.6,18z"/>
	<g>
		<path fill="#46838E" d="M-368.7,152.1c1.5-7.9,3.6-17.1,6.2-26.7l-23-5.7c-2.8,10.4-5.1,20.5-6.8,29.5
			c-11.1,3.7-19.2,14.2-19.2,26.5h55.9C-355.6,165.8-360.9,157-368.7,152.1z"/>
		<path fill="#46838E" d="M-261.5,149.3c-1.9-10.1-4.5-21.7-7.9-33.5l-23.1,5.8c3.1,10.9,5.6,21.4,7.3,30.4
			c-7.9,4.9-13.2,13.7-13.2,23.7h55.9C-242.5,163.5-250.4,153-261.5,149.3z"/>
	</g>
	<path fill="#E4394A" d="M-276.3,93.9c-5.8-16.3-12.1-29.6-18.7-39.5c-9.7-14.6-20.5-22-31.9-22s-22.2,7.4-31.9,22
		c-6.6,9.9-12.8,23.1-18.7,39.5c-21,4.8-34.6,12.5-34.6,21.2c0,14.6,38.1,26.3,85.2,26.3c47,0,85.2-11.8,85.2-26.3
		C-241.7,106.4-255.3,98.7-276.3,93.9z"/>
	<circle fill="#FFFFFF" cx="-327.2" cy="79.7" r="20.8"/>
	<path fill="#0093B2" d="M-327.2,90.8c-6.1,0-11.1-5-11.1-11.1c0-6.1,5-11.1,11.1-11.1s11.1,5,11.1,11.1
		C-316.1,85.8-321.1,90.8-327.2,90.8z"/>
</g>
<g>
	<path fill="#0093B2" d="M-78.1,87.5l-23.1,12.7c-4.3-4.5-8.6-7.7-12.9-9.4c-4.2-1.8-9.2-2.6-14.9-2.6c-10.4,0-18.8,3.1-25.2,9.3
		c-6.4,6.2-9.6,14.1-9.6,23.8c0,9.4,3.1,17.1,9.3,23c6.2,6,14.3,8.9,24.3,8.9c12.4,0,22.1-4.2,29-12.7l21.9,15
		c-11.9,15.4-28.6,23.1-50.2,23.1c-19.4,0-34.7-5.8-45.7-17.3c-11-11.5-16.5-25-16.5-40.4c0-10.7,2.7-20.6,8-29.6
		c5.4-9,12.8-16.1,22.4-21.2c9.6-5.1,20.3-7.7,32.2-7.7c11,0,20.8,2.2,29.6,6.6C-90.8,73.2-83.7,79.5-78.1,87.5z"/>
	<path fill="#0093B2" d="M-71.8,32.5H-44v143.3h-27.7V32.5z"/>
	<path fill="#0093B2" d="M21.5,62.3c10.4,0,20.2,2.6,29.4,7.8c9.2,5.2,16.3,12.3,21.5,21.2c5.1,8.9,7.7,18.6,7.7,29
		c0,10.4-2.6,20.2-7.8,29.3c-5.2,9.1-12.2,16.2-21.2,21.3c-8.9,5.1-18.8,7.7-29.6,7.7c-15.9,0-29.4-5.6-40.6-16.9
		c-11.2-11.3-16.8-25-16.8-41.1c0-17.3,6.3-31.7,19-43.2C-5.7,67.3,7.1,62.3,21.5,62.3z M22,88.4c-8.6,0-15.8,3-21.5,9
		c-5.7,6-8.6,13.7-8.6,23c0,9.6,2.8,17.4,8.5,23.4c5.7,6,12.8,8.9,21.5,8.9c8.7,0,15.9-3,21.7-9.1c5.8-6,8.7-13.8,8.7-23.3
		c0-9.5-2.8-17.2-8.5-23.1C38.1,91.4,30.8,88.4,22,88.4z"/>
	<path fill="#0093B2" d="M279.4,32.5V71c0-0.3-1-0.6-1.5-0.9c-9.2-5.2-19-7.8-29.4-7.8c-14.4,0-27.2,5-38.3,15
		c-12.7,11.5-19,25.9-19,43.2c0,16.1,5.6,29.8,16.8,41.1c11.2,11.3,24.7,16.9,40.6,16.9c10.8,0,20.6-2.6,29.6-7.7
		c8.9-5.1,16.1-12.4,21.3-21.4c5.2-9,7.9-18.6,7.9-29.3V32.5H279.4z M270.5,143.7c-5.8,6-13,9.1-21.7,9.1c-8.7,0-15.9-3-21.5-8.9
		c-5.7-6-8.5-13.8-8.5-23.4c0-9.4,2.9-17,8.6-23c5.7-6,12.9-9,21.5-9c8.8,0,16.1,3,21.7,8.9c5.7,5.9,8.5,13.6,8.5,23.1
		C279.2,129.9,276.3,137.7,270.5,143.7z"/>
	<path fill="#0093B2" d="M86.8,65.2h28v53.2c0,10.4,0.7,17.6,2.1,21.6c1.4,4,3.7,7.2,6.9,9.4c3.2,2.2,7,3.4,11.7,3.4
		c4.6,0,8.5-1.1,11.8-3.3c3.2-2.2,5.6-5.4,7.2-9.7c1.2-3.2,1.7-10,1.7-20.4V65.2h27.7V112c0,19.3-1.5,32.5-4.6,39.6
		c-3.7,8.7-9.2,15.3-16.5,20c-7.2,4.6-16.5,7-27.6,7c-12.1,0-21.9-2.7-29.4-8.1c-7.5-5.4-12.8-13-15.8-22.7
		c-2.2-6.7-3.3-18.9-3.3-36.6V65.2z"/>
	<path fill="#0093B2" d="M471.7,175.7h-28v-53.2c0-10.4-0.7-17.6-2.1-21.6c-1.4-4-3.7-7.2-6.9-9.4c-3.2-2.2-7-3.4-11.7-3.4
		c-4.6,0-8.5,1.1-11.8,3.3c-3.2,2.2-5.6,5.4-7.2,9.7c-1.2,3.2-1.7,10-1.7,20.4v54.2h-27.7v-46.8c0-19.3,1.5-32.5,4.6-39.6
		c3.7-8.7,9.2-15.3,16.5-20c7.2-4.6,16.5-7,27.6-7c12.1,0,21.9,2.7,29.4,8.1c7.5,5.4,12.8,13,15.8,22.7c2.2,6.7,3.3,18.9,3.3,36.6
		V175.7z"/>
	<path fill="#0093B2" d="M536.9,62.3c10.4,0,20.2,2.6,29.4,7.8c9.2,5.2,16.3,12.3,21.5,21.2c5.1,8.9,7.7,18.6,7.7,29
		c0,10.4-2.6,20.2-7.8,29.3c-5.2,9.1-12.2,16.2-21.2,21.3c-8.9,5.1-18.8,7.7-29.6,7.7c-15.8,0-29.4-5.6-40.6-16.9
		c-11.2-11.3-16.8-25-16.8-41.1c0-17.3,6.3-31.7,19-43.2C509.7,67.3,522.5,62.3,536.9,62.3z M537.4,88.4c-8.6,0-15.8,3-21.5,9
		c-5.7,6-8.6,13.7-8.6,23c0,9.6,2.8,17.4,8.5,23.4c5.7,6,12.8,8.9,21.5,8.9c8.7,0,15.9-3,21.7-9.1c5.8-6,8.7-13.8,8.7-23.3
		c0-9.5-2.8-17.2-8.5-23.1C553.4,91.4,546.2,88.4,537.4,88.4z"/>
	<path fill="#0093B2" d="M377.4,63.2c0-17.4-13.9-31.5-31.4-31.5s-31.4,14.1-31.4,31.5c0,12.4,8.7,23.1,17.7,28.3v87h27V91.6
		C369.4,86.4,377.4,75.7,377.4,63.2z M346.2,54.9c4.6,0,8.4,3.7,8.4,8.4c0,4.6-3.7,8.4-8.4,8.4c-4.6,0-8.4-3.7-8.4-8.4
		C337.8,58.6,341.5,54.9,346.2,54.9z"/>
</g>
</svg>
